<?xml version="1.0" encoding="UTF-8"?>
<svg xmlns="http://www.w3.org/2000/svg" xmlns:xlink="http://www.w3.org/1999/xlink" width="20px" height="20px" viewBox="0 0 20 20" version="1.1">
<g id="surface1">
<path style=" stroke:none;fill-rule:nonzero;fill:rgb(75.294118%,75.294118%,75.294118%);fill-opacity:1;" d="M 19.964844 9.382812 C 19.648438 4.171875 15.335938 0.0390625 10.050781 0.00390625 L 9.933594 0.00390625 C 8.066406 0.0195312 6.320312 0.539062 4.828125 1.441406 C 3.453125 2.273438 2.292969 3.429688 1.457031 4.800781 C 0.632812 6.148438 0.125 7.707031 0.0195312 9.378906 C 0.0078125 9.582031 0 9.789062 0 10 C 0 10.207031 0.0078125 10.417969 0.0195312 10.621094 C 0.125 12.289062 0.632812 13.847656 1.457031 15.195312 C 2.289062 16.570312 3.441406 17.722656 4.808594 18.558594 C 6.308594 19.453125 8.058594 19.976562 9.917969 19.992188 L 10.066406 19.992188 C 15.355469 19.953125 19.648438 15.832031 19.976562 10.625 C 19.988281 10.425781 20 10.210938 20 10.011719 C 20 9.8125 20 9.597656 19.988281 9.398438 Z M 10 13.035156 L 10 16.226562 C 10.082031 18.175781 9.527344 18.5 8.859375 18.53125 C 8.832031 18.53125 8.804688 18.53125 8.777344 18.535156 C 4.980469 17.996094 1.976562 14.984375 1.457031 11.179688 C 1.402344 10.792969 1.375 10.398438 1.375 9.996094 C 1.375 9.597656 1.402344 9.203125 1.457031 8.816406 C 1.976562 5.015625 4.972656 2.007812 8.765625 1.464844 L 8.859375 1.472656 C 9.527344 1.511719 10.082031 1.832031 10.003906 3.777344 L 10.003906 6.96875 C 9.996094 8.277344 10.75 9.527344 11.550781 10 C 10.75 10.46875 9.992188 11.5625 10 13.027344 Z M 10 13.035156 "/>
</g>
</svg>
